<svg width="71.429" height="81.556" version="1.1" viewBox="0 0 18.899 21.578" xmlns="http://www.w3.org/2000/svg">
  <g transform="translate(-18.899 -4.8798)">
    <path transform="matrix(.26458 0 0 .26458 18.899 4.8798)" d="m0 23.182v58.375h18.268s-5.9545-11.069-11.162-23.279h4.9902s-4.5249-8.4149-8.1191-17.156h3.4238s-6.1574-11.448-7.4004-17.939zm71.428 0c-1.2937 6.7562-7.4004 17.939-7.4004 17.939h3.4668c-3.6076 8.8152-8.1621 17.156-8.1621 17.156h5.0586c-5.2308 12.296-11.23 23.279-11.23 23.279h18.27v-58.367c-4.82e-4 -0.002507-0.001474-0.005307-0.001954-0.007812z" opacity=".5" fill="#226f54"/>
    <path d="m28.348 4.8798c-0.6692 2.4975-3.8283 6.6314-3.8283 6.6314h1.7927c-1.8661 3.2586-4.2212 6.3415-4.2212 6.3415h2.616c-2.7058 4.5452-5.8086 8.6056-5.8086 8.6056h18.899s-3.08-4.0919-5.7738-8.6056h2.5812s-2.3404-3.1101-4.1996-6.3415h1.7711s-3.1854-4.2319-3.8283-6.6314z" fill="#226f54"/>
  </g>
</svg>
